<svg version="1" xmlns="http://www.w3.org/2000/svg" width="853.333" height="853.333" viewBox="0 0 640.000000 640.000000"><path d="M396.5 309.5c-11 2.1-13.7 3-23.8 8.3-14.8 7.7-30.1 24.1-35.7 38.1-2.4 6.1-2.5 8.4-.6 10 2 1.7 5.1-.1 15.6-8.9 15.3-12.8 30.6-18.5 50-18.5 24.2 0 35.6 7.6 40 26.7 1.7 7.4.8 20.3-2 28.2-4.6 13.5-10.4 20.8-44.7 56.2-29.6 30.6-41.3 45.2-49.4 61.4-7.1 14.1-4.9 17.5 10.7 17.5 11.8 0 13.4-1.1 19.4-13 8.1-16.1 12-20.8 43-51.5 37.7-37.5 44.9-45.8 52.2-60.5 6.4-12.8 7.3-16.6 7.2-31-.1-23.4-7-39.1-22.4-50.8-14.5-11-38.9-16-59.5-12.2zM251.8 311.4c-5 1.8-8.2 4-14.1 9.5-8.9 8.3-8.2-.3-8.5 96.9-.2 57.4.1 87.5.8 90.1 1.6 5.9 3.2 6.3 29.6 5.9 26.5-.3 26.6-.4 36-9.8 7.2-7.2 11.4-14.3 11.4-19.1 0-5.2-2.3-5.9-19.3-5.9-7.8 0-15.9-.5-17.9-1.1-7.1-1.9-6.8 2.2-6.8-84.4 0-56.6-.3-78.2-1.1-79.8-2.2-4-4-4.5-10.1-2.3zm-4.4 71.2c1.4.5 1.6 4.1 1.6 29.9 0 25.8-.2 29.4-1.6 29.9-.9.3-1.8.6-2 .6-.2 0-.4-13.7-.4-30.5s.2-30.5.4-30.5 1.1.3 2 .6zM208.9 353.7c-1.4 1.6-9.5 13.1-17.9 25.8-14.1 21.1-19.7 29.4-32.2 47.5-19.4 28.3-21.8 32.6-20 36.4 2.1 4.6 10.5 5.5 21.6 2.3 6.3-1.8 11.5-8.1 33.1-40.7 23.6-35.4 23.7-35.8 23.9-55 .1-17.9-2.5-22.8-8.5-16.3zM129.5 480.9c-8.7 3.9-21.6 21.5-20.1 27.4 1.4 5.6 2.2 5.7 53 5.7 33.8 0 47.2-.3 49.1-1.2 3.9-1.8 5.6-7 5.8-17.4.2-10.1-.9-13.5-5-15.3-1.6-.7-14.6-1.1-40.6-1-34.4 0-38.6.2-42.2 1.8zM238 526.3c-8.3 1.6-8.5 2.1-8.8 23.8-.4 22.5 0 23.9 7.1 23.9 8.5 0 23.6-11.5 25.6-19.6 1.6-6.1 1.4-19.8-.3-23.8-1.2-2.8-2.1-3.5-5.4-4.1-6.3-1-13.4-1.1-18.2-.2zM392.4 539c-48.2.5-51.3.6-53.3 2.4-3.1 2.9-4.5 8.3-4.6 18.3 0 7.6.3 9.5 1.8 11 1.7 1.7 5.7 1.8 63.5 2.1 42.9.2 63.3 0 66.9-.8 3.9-.8 6-2 8.5-4.8 6.7-7.4 12.5-20.1 11.4-24.7-1-3.8-5.2-4.5-25-4.3-10 .2-41.1.5-69.2.8z"/></svg>